<svg width="900" height="450" viewBox="0 0 900 450" fill="none" xmlns="http://www.w3.org/2000/svg">
<rect width="900" height="450" fill="#BCE4F9"/>
<circle cx="450" cy="225" r="205" fill="#BCE4F9"/>
<circle cx="450" cy="225" r="205" stroke="#93D3F6"/>
<g clip-path="url(#clip0_4423:12156)">
<path d="M448.747 122.5H451.173C456.586 122.828 461.908 124.934 465.944 128.586C471.325 133.327 474.4 140.578 473.983 147.745C473.807 151.524 472.666 155.224 470.816 158.515C481.639 162.895 491.052 170.679 497.302 180.549C503.664 190.474 506.727 202.458 505.923 214.217C505.158 226.814 499.909 239.062 491.368 248.351C483 257.564 471.485 263.886 459.185 265.872C456.618 266.352 454 266.416 451.397 266.424C456.671 266.753 461.956 266.613 467.237 266.641C482.712 266.657 498.187 266.613 513.662 266.661C522.919 266.865 532.256 269.8 539.491 275.677C544.985 280.09 549.101 286.2 551.039 292.982C551.875 295.781 552.252 298.684 552.5 301.587V304.626C552.132 311.092 549.129 317.378 544.2 321.602C540.204 325.126 534.999 327.148 529.702 327.5H370.386C364.108 327.144 357.994 324.305 353.778 319.624C350.042 315.576 347.856 310.207 347.5 304.726V301.675C347.872 295.008 349.89 288.382 353.762 282.904C359.235 275.005 368.012 269.76 377.325 267.738C381.201 266.869 385.181 266.581 389.145 266.641C406.898 266.645 424.655 266.641 442.409 266.641C444.479 266.633 446.545 266.517 448.615 266.428C445.187 266.468 441.752 266.188 438.409 265.415C426.361 262.909 415.262 256.23 407.306 246.853C399.631 237.877 394.906 226.417 394.101 214.626C393.241 203.207 396.011 191.543 401.949 181.746C408.199 171.328 417.921 163.056 429.2 158.539C427.262 155.128 426.113 151.268 425.997 147.34C425.712 140.397 428.691 133.419 433.852 128.774C437.9 125.05 443.265 122.856 448.747 122.5ZM447.802 138.824C444.855 139.637 442.521 142.275 442.088 145.302C441.668 147.889 442.633 150.639 444.575 152.397C446.705 154.415 449.992 155.08 452.739 154.039C455.405 153.086 457.459 150.627 457.892 147.825C458.348 145.226 457.391 142.443 455.441 140.662C453.447 138.768 450.44 138.047 447.802 138.824ZM424.427 179.82C417.476 185.578 412.571 193.729 410.77 202.578C415.362 202.466 420.079 203.019 424.539 201.641C432.691 199.395 439.33 192.508 441.279 184.28C442.389 180.068 441.876 175.672 441.988 171.372C435.558 172.681 429.472 175.62 424.427 179.82ZM458.012 171.34C458.12 175.892 457.567 180.569 458.905 185.001C461.123 193.217 468.054 199.912 476.334 201.873C480.546 202.975 484.934 202.458 489.23 202.578C487.925 196.34 485.154 190.41 481.13 185.461C475.365 178.262 467.041 173.213 458.012 171.34ZM425.536 217.861C420.675 218.866 415.691 218.534 410.766 218.598C412.483 227.07 417.06 234.918 423.558 240.615C430.069 246.385 438.509 249.944 447.197 250.521C456.502 251.202 466.02 248.483 473.539 242.946C481.551 237.148 487.264 228.291 489.234 218.598C484.313 218.534 479.337 218.866 474.484 217.865C464.778 216.043 455.93 210.418 449.984 202.558C444.094 210.442 435.222 216.043 425.536 217.861ZM382.947 282.989C376.356 283.861 369.79 287.217 366.306 293.05C364.248 296.41 363.355 300.414 363.568 304.329C363.904 308.277 367.556 311.56 371.519 311.48C423.834 311.488 476.15 311.488 528.465 311.48C532.288 311.556 535.852 308.513 536.376 304.73C536.969 298.6 534.394 292.246 529.638 288.314C524.797 284.214 518.303 282.604 512.061 282.66C470.82 282.652 429.58 282.66 388.34 282.656C386.538 282.664 384.732 282.72 382.947 282.989Z" fill="black"/>
</g>
<defs>
<clipPath id="clip0_4423:12156">
<rect width="205" height="205" fill="white" transform="translate(347.5 122.5)"/>
</clipPath>
</defs>
</svg>
