<svg width="900" height="450" viewBox="0 0 900 450" fill="none" xmlns="http://www.w3.org/2000/svg">
<rect width="900" height="450" fill="#BCE4F9"/>
<circle cx="450" cy="225" r="205" fill="#BCE4F9"/>
<circle cx="450" cy="225" r="205" stroke="#93D3F6"/>
<g clip-path="url(#clip0_4423:12155)">
<path d="M385.121 122.5H386.514C389.481 122.74 392.24 124.686 393.341 127.465C394.206 129.391 393.681 131.621 394.546 133.543C395.727 136.49 398.778 138.556 401.961 138.508C421.448 138.528 440.931 138.512 460.418 138.516C464.434 138.544 468.478 138.347 472.454 139.04C483.241 140.73 493.142 147.136 499.208 156.197C503.721 162.863 506.179 170.931 506.027 178.991C505.923 183.103 502.163 186.651 498.055 186.554C466.02 186.571 433.981 186.559 401.941 186.559C395.275 186.579 388.68 183.636 384.216 178.695C380.212 174.339 377.914 168.457 377.934 162.539C377.934 151.861 377.922 141.182 377.938 130.504C377.838 126.488 381.165 122.912 385.121 122.5ZM393.95 153.162C393.962 156.433 393.91 159.708 393.97 162.979C394.082 167.092 397.845 170.635 401.953 170.543C430.858 170.551 459.766 170.547 488.67 170.543C486.528 164.541 481.939 159.464 476.154 156.781C472.875 155.22 469.227 154.507 465.608 154.531C444.523 154.527 423.442 154.535 402.358 154.531C399.499 154.559 396.656 154.079 393.95 153.162Z" fill="black"/>
<path d="M393.981 200.135C394.137 196.071 397.877 192.596 401.937 192.696C405.861 192.588 409.513 195.811 409.885 199.719C410.061 202.133 409.913 204.556 409.961 206.978C409.933 211.646 410.686 216.323 412.255 220.723C415.662 230.433 422.986 238.677 432.207 243.229C439.926 247.117 448.931 248.33 457.415 246.721C466.128 245.107 474.224 240.463 480.053 233.796C485.975 227.094 489.571 218.357 489.971 209.412C490.027 208.219 489.999 207.022 490.195 205.841C490.672 203.242 492.554 200.964 495.004 199.975C497.382 198.982 500.241 199.242 502.395 200.66C504.637 202.089 506.071 204.696 506.039 207.362C506.051 213.244 505.118 219.126 503.296 224.715C499.476 236.527 491.573 246.941 481.279 253.868C472.51 259.733 462.032 263.349 451.421 263.221C458.809 263.621 466.212 263.365 473.607 263.437C486.836 263.449 500.061 263.413 513.29 263.453C526.102 263.593 538.546 270.452 545.641 281.102C549.749 287.104 552.032 294.247 552.5 301.486V304.681C552.116 311.035 549.201 317.217 544.4 321.426C540.388 325.041 535.119 327.131 529.746 327.5H370.298C364.052 327.107 357.974 324.284 353.778 319.62C350.05 315.584 347.868 310.235 347.5 304.765V301.586C347.744 298.539 348.161 295.492 349.021 292.549C351.448 283.913 356.913 276.197 364.196 270.972C370.931 266.096 379.223 263.425 387.539 263.441C402.886 263.433 418.233 263.441 433.58 263.437C438.569 263.421 443.562 263.525 448.543 263.225C435.266 263.305 422.237 257.767 412.435 248.931C403.114 240.547 396.724 228.959 394.71 216.575C393.765 211.15 393.917 205.617 393.981 200.135ZM383.743 279.753C375.319 281.066 367.86 287.184 364.993 295.224C363.92 298.247 363.287 301.498 363.616 304.709C364.132 308.497 367.692 311.552 371.519 311.48C423.838 311.488 476.162 311.488 528.481 311.48C532.448 311.56 536.108 308.265 536.428 304.309C536.657 300.445 535.744 296.553 534.09 293.074C530.194 284.774 521.233 279.208 512.057 279.453C470.544 279.457 429.028 279.449 387.515 279.457C386.254 279.465 384.989 279.549 383.743 279.753Z" fill="black"/>
</g>
<defs>
<clipPath id="clip0_4423:12155">
<rect width="205" height="205" fill="white" transform="translate(347.5 122.5)"/>
</clipPath>
</defs>
</svg>
