<svg width="900" height="450" viewBox="0 0 900 450" fill="none" xmlns="http://www.w3.org/2000/svg">
<rect width="900" height="450" fill="#BCE4F9"/>
<circle cx="450" cy="225" r="205" fill="#BCE4F9"/>
<circle cx="450" cy="225" r="205" stroke="#E7EDA5"/>
<g clip-path="url(#clip0_4423:12154)">
<path d="M397.644 243.785C405.587 252.145 409.961 263.097 409.961 274.645C409.961 287.892 420.738 298.669 433.985 298.669H466.016C479.263 298.669 490.04 287.892 490.04 274.623C490.04 263.097 494.414 252.145 502.357 243.784C515.07 230.403 522.071 212.924 522.071 194.567C522.071 148.659 479.544 113.633 432.821 124.492C407.087 130.472 386.405 150.924 380.129 176.594C373.94 201.906 381.174 226.448 397.644 243.785ZM395.686 180.398C400.541 160.539 416.541 144.718 436.446 140.092C472.886 131.623 506.055 158.732 506.055 194.567C506.055 208.8 500.618 222.362 490.745 232.754C479.963 244.104 474.024 258.973 474.024 274.645C474.024 279.061 470.432 282.653 466.016 282.653H433.985C429.569 282.653 425.977 279.061 425.977 274.623C425.977 258.973 420.038 244.104 409.256 232.754C395.927 218.724 390.981 199.641 395.686 180.398Z" fill="black"/>
<path d="M371.692 238.709C373.655 234.747 372.035 229.943 368.072 227.979C364.109 226.015 359.305 227.636 357.342 231.598C355.378 235.561 356.998 240.365 360.961 242.329C364.924 244.293 369.728 242.672 371.692 238.709Z" fill="black"/>
<path d="M536.01 161.963C540.428 161.724 543.816 157.949 543.577 153.531C543.338 149.113 539.563 145.725 535.145 145.964C530.727 146.202 527.339 149.978 527.577 154.396C527.816 158.814 531.592 162.202 536.01 161.963Z" fill="black"/>
<path d="M361.126 161.213C365.134 163.082 369.899 161.348 371.768 157.339C373.637 153.331 371.903 148.567 367.895 146.697C363.886 144.828 359.122 146.563 357.253 150.571C355.384 154.579 357.118 159.344 361.126 161.213Z" fill="black"/>
<path d="M541.117 240.849C544.244 237.722 544.244 232.652 541.117 229.525C537.991 226.399 532.921 226.399 529.794 229.525C526.668 232.652 526.668 237.722 529.794 240.849C532.921 243.975 537.991 243.975 541.117 240.849Z" fill="black"/>
<path d="M355.508 202.573C359.93 202.573 363.516 198.988 363.516 194.565C363.516 190.143 359.93 186.558 355.508 186.558C351.085 186.558 347.5 190.143 347.5 194.565C347.5 198.988 351.085 202.573 355.508 202.573Z" fill="black"/>
<path d="M544.492 202.573C548.915 202.573 552.5 198.988 552.5 194.565C552.5 190.143 548.915 186.558 544.492 186.558C540.07 186.558 536.484 190.143 536.484 194.565C536.484 198.988 540.07 202.573 544.492 202.573Z" fill="black"/>
<path d="M433.984 311.479C429.562 311.479 425.977 315.065 425.977 319.487C425.977 323.91 429.562 327.495 433.984 327.495H466.016C470.438 327.495 474.023 323.91 474.023 319.487C474.023 315.065 470.438 311.479 466.016 311.479H433.984Z" fill="black"/>
<path d="M450 218.589C454.423 218.589 458.008 215.004 458.008 210.581V178.55C458.008 174.127 454.423 170.542 450 170.542C445.577 170.542 441.992 174.127 441.992 178.55V210.581C441.992 215.004 445.577 218.589 450 218.589Z" fill="black"/>
<path d="M450 250.62C454.423 250.62 458.008 247.035 458.008 242.612C458.008 238.19 454.423 234.604 450 234.604C445.577 234.604 441.992 238.19 441.992 242.612C441.992 247.035 445.577 250.62 450 250.62Z" fill="black"/>
</g>
<defs>
<clipPath id="clip0_4423:12154">
<rect width="205" height="205" fill="white" transform="translate(347.5 122.5)"/>
</clipPath>
</defs>
</svg>
