<svg width="900" height="450" viewBox="0 0 900 450" fill="none" xmlns="http://www.w3.org/2000/svg">
<rect width="900" height="450" fill="#C6EAE7"/>
<circle cx="450" cy="225" r="205" fill="#C6EAE7"/>
<circle cx="450" cy="225" r="205" stroke="#A6DDD8"/>
<g clip-path="url(#clip0_4423:12151)">
<path d="M447.783 129.219C452.348 127.741 457.597 131.269 457.945 136.045C458.078 141.679 457.977 147.32 457.997 152.954C458.045 156.421 455.559 159.7 452.224 160.617C447.351 162.235 441.822 158.067 441.994 152.95C441.986 147.601 441.986 142.251 441.994 136.902C441.938 133.427 444.432 130.132 447.783 129.219Z" fill="black"/>
<path d="M413.719 149.952C416.49 149.103 419.693 149.892 421.711 151.986C425.19 155.446 428.65 158.929 432.129 162.392C434.824 164.582 436.181 168.422 434.852 171.737C433.871 174.452 431.308 176.514 428.441 176.874C425.951 177.243 423.332 176.318 421.595 174.504C417.863 170.777 414.135 167.053 410.412 163.321C408.322 161.299 407.493 158.1 408.358 155.321C409.095 152.783 411.193 150.709 413.719 149.952Z" fill="black"/>
<path d="M481.762 149.925C484.633 149.08 487.952 150.005 489.922 152.271C492.048 154.561 492.573 158.137 491.247 160.956C490.675 162.293 489.618 163.326 488.597 164.327C485.197 167.714 481.814 171.117 478.415 174.505C476.665 176.315 474.043 177.247 471.544 176.871C468.805 176.523 466.351 174.625 465.286 172.086C464.305 169.84 464.461 167.15 465.666 165.024C466.363 163.766 467.468 162.821 468.465 161.812C471.668 158.605 474.875 155.406 478.07 152.199C479.087 151.15 480.349 150.321 481.762 149.925Z" fill="black"/>
<path d="M378.11 202.383C387.883 196.385 399.291 193.097 410.758 192.981C416.363 192.957 421.969 192.965 427.574 192.977C432.631 192.941 437.6 195.492 440.539 199.608C442.533 202.306 443.538 205.642 443.618 208.981C448.939 208.989 454.26 208.985 459.585 208.985C459.281 202.759 463.301 196.797 468.983 194.391C471.185 193.398 473.607 192.953 476.017 192.969C493.51 192.969 511.004 192.965 528.493 192.973C535.167 192.949 541.77 195.896 546.234 200.853C549.958 204.897 552.128 210.25 552.5 215.716V234.214C552.156 239.523 550.114 244.732 546.594 248.74C542.21 253.825 535.62 256.936 528.897 257.02C517.682 257.056 506.467 257.008 495.252 257.044C488.522 257.084 482.011 260.371 477.687 265.48C474.904 268.659 473.03 272.539 471.865 276.583C468.734 286.989 463.109 296.747 455.125 304.182C443.97 314.692 428.759 320.282 413.572 321.042C402.474 321.415 391.291 318.812 381.501 313.567C369.714 307.305 359.976 297.267 354.086 285.287C349.942 276.951 347.74 267.694 347.5 258.393V254.666C347.868 247.527 349.246 240.42 351.872 233.757C356.889 220.813 366.25 209.602 378.11 202.383ZM390.45 213.854C380.004 218.919 371.559 227.931 367.155 238.67C362.895 248.908 362.367 260.635 365.662 271.222C368.761 281.284 375.295 290.236 383.912 296.282C393.781 303.301 406.421 306.444 418.405 304.482C428.167 302.961 437.732 298.881 444.831 291.89C450.601 286.304 454.492 279.001 456.731 271.338C459.069 263.354 463.625 255.975 469.975 250.562C476.83 244.64 485.763 241.144 494.836 241.028C506.051 240.996 517.266 241.032 528.485 241.012C532.585 241.096 536.332 237.565 536.456 233.461C536.5 227.831 536.5 222.198 536.46 216.572C536.352 212.456 532.605 208.897 528.489 208.989C510.875 208.981 493.254 208.985 475.637 208.989C475.613 213.277 473.847 217.533 470.728 220.492C467.781 223.347 463.717 224.985 459.617 224.993C454.264 225.005 448.915 225.005 443.562 224.993C438.525 225.009 433.576 222.466 430.641 218.378C428.647 215.676 427.614 212.332 427.566 208.985C422.093 208.985 416.619 208.977 411.146 208.993C403.999 209.037 396.868 210.715 390.45 213.854Z" fill="black"/>
<path d="M407.755 233.309C413.056 232.448 418.637 233.449 423.314 236.096C428.927 239.243 433.184 244.728 434.781 250.966C436.399 256.896 435.514 263.422 432.495 268.76C429.812 273.564 425.432 277.392 420.303 279.39C415.142 281.428 409.26 281.616 404.003 279.81C397.893 277.808 392.7 273.228 389.925 267.43C387.267 261.973 386.794 255.491 388.688 249.721C391.315 241.245 398.994 234.67 407.755 233.309ZM409.356 249.333C406.417 250.149 404.083 252.78 403.647 255.803C403.226 258.381 404.183 261.128 406.113 262.886C408.239 264.916 411.53 265.589 414.281 264.556C416.844 263.639 418.854 261.34 419.39 258.67C419.959 256.075 419.106 253.232 417.212 251.375C415.218 249.333 412.091 248.528 409.356 249.333Z" fill="black"/>
</g>
<defs>
<clipPath id="clip0_4423:12151">
<rect width="205" height="205" fill="white" transform="translate(347.5 122.5)"/>
</clipPath>
</defs>
</svg>
