<svg width="900" height="450" viewBox="0 0 900 450" fill="none" xmlns="http://www.w3.org/2000/svg">
<rect width="900" height="450" fill="#C6EAE7"/>
<circle cx="450" cy="225" r="205" fill="#C6EAE7"/>
<circle cx="450" cy="225" r="205" stroke="#A6DDD8"/>
<g clip-path="url(#clip0_4423:12152)">
<path d="M389.74 129.184C397.284 128.172 405.175 129.945 411.514 134.165C417.079 137.817 421.459 143.234 423.838 149.452C426.372 155.987 426.648 163.366 424.634 170.08C422.484 177.343 417.652 183.766 411.273 187.85C405.584 191.553 398.681 193.343 391.906 192.895C385.624 192.514 379.482 190.204 374.502 186.356C369.397 182.468 365.505 177.015 363.507 170.913C360.896 163.018 361.521 154.105 365.268 146.67C369.889 137.288 379.342 130.474 389.74 129.184ZM390.926 145.216C386.489 146.057 382.481 148.868 380.191 152.759C377.581 157.056 377.224 162.605 379.222 167.214C381.777 173.396 388.507 177.508 395.178 176.891C399.902 176.559 404.391 173.968 407.073 170.068C409.768 166.265 410.633 161.24 409.388 156.747C408.274 152.575 405.38 148.92 401.58 146.874C398.365 145.096 394.525 144.527 390.926 145.216Z" fill="black"/>
<path d="M469.81 129.185C477.353 128.172 485.249 129.942 491.591 134.166C497.156 137.817 501.541 143.239 503.919 149.461C506.634 156.463 506.75 164.431 504.247 171.51C501.885 178.281 497.168 184.203 491.094 188.018C485.345 191.682 478.39 193.399 471.595 192.867C459.283 192.082 447.98 183.434 443.896 171.81C440.934 163.699 441.454 154.385 445.346 146.67C449.966 137.289 459.416 130.474 469.81 129.185ZM471.019 145.212C466.955 145.981 463.243 148.392 460.893 151.791C458.623 155.01 457.63 159.086 458.15 162.99C458.663 167.126 460.897 171.006 464.192 173.556C467.507 176.159 471.88 177.368 476.064 176.807C480.496 176.267 484.624 173.736 487.155 170.061C489.493 166.745 490.466 162.509 489.837 158.501C489.132 153.729 486.118 149.373 481.913 147.014C478.65 145.132 474.71 144.512 471.019 145.212Z" fill="black"/>
<path d="M362.15 218.096C369.217 212.235 378.362 208.959 387.543 208.987C418.501 208.979 449.459 208.979 480.418 208.987C489.503 208.947 498.547 212.159 505.586 217.9C513.278 224.09 518.555 233.207 520.004 242.985C520.613 246.704 520.445 250.484 520.469 254.236C520.469 262.107 520.469 269.975 520.469 277.847C520.465 280.137 520.509 282.431 520.293 284.713C519.788 290.311 518.074 295.8 515.3 300.689C509.626 310.855 499.32 318.294 487.861 320.392C483.437 321.289 478.904 321.069 474.416 321.093C445.323 321.085 416.231 321.105 387.139 321.085C376.396 321.037 365.806 316.364 358.463 308.537C351.88 301.67 348.004 292.389 347.5 282.904V247.249C348.017 236.042 353.422 225.171 362.15 218.096ZM383.735 225.299C378.61 226.148 373.77 228.671 370.19 232.446C365.95 236.839 363.5 242.905 363.52 249.015C363.516 259.693 363.516 270.371 363.52 281.05C363.496 287.344 366.106 293.586 370.571 298.018C375.003 302.475 381.241 305.085 387.535 305.073C417.829 305.081 448.122 305.073 478.42 305.077C486.135 305.586 494.047 302.379 498.936 296.329C502.463 292.081 504.449 286.587 504.449 281.07C504.453 270.383 504.453 259.701 504.449 249.019C504.469 242.348 501.534 235.738 496.577 231.273C492.229 227.273 486.359 224.987 480.45 224.999C449.62 224.995 418.794 225.003 387.963 224.999C386.55 224.995 385.133 225.071 383.735 225.299Z" fill="black"/>
<path d="M539.676 226.613C542.195 224.663 545.903 224.467 548.613 226.145C550.811 227.426 552.225 229.808 552.501 232.319V297.675C552.285 299.753 551.332 301.767 549.722 303.124C547.436 305.146 543.961 305.65 541.194 304.361C538.391 303.124 536.457 300.165 536.493 297.094C536.473 275.869 536.493 254.641 536.481 233.412C536.369 230.801 537.566 228.171 539.676 226.613Z" fill="black"/>
<path d="M478.206 241.329C480.764 240.573 483.671 241.209 485.673 242.971C487.847 244.817 488.876 247.884 488.259 250.675C487.655 253.718 485.112 256.256 482.065 256.853C479.387 257.441 476.444 256.508 474.59 254.486C472.62 252.436 471.919 249.293 472.804 246.595C473.577 244.084 475.679 242.042 478.206 241.329Z" fill="black"/>
</g>
<defs>
<clipPath id="clip0_4423:12152">
<rect width="205" height="205" fill="white" transform="translate(347.5 122.5)"/>
</clipPath>
</defs>
</svg>
