<svg width="900" height="450" viewBox="0 0 900 450" fill="none" xmlns="http://www.w3.org/2000/svg">
<rect width="900" height="450" fill="#C6EAE7"/>
<circle cx="450" cy="225" r="205" fill="#C6EAE7"/>
<circle cx="450" cy="225" r="205" stroke="#A6DDD8"/>
<g clip-path="url(#clip0_4423:12153)">
<path d="M353.774 144.786C358.246 139.841 364.849 136.89 371.523 136.914C413.168 136.914 454.813 136.914 496.457 136.914C502.463 136.906 508.433 139.252 512.801 143.377C517.626 147.833 520.477 154.339 520.465 160.91C520.477 203.627 520.457 246.349 520.477 289.067C520.441 291.937 522.114 294.716 524.633 296.077C527.051 297.439 530.186 297.383 532.557 295.941C534.939 294.548 536.488 291.861 536.476 289.103C536.5 262.389 536.468 235.679 536.492 208.965C536.452 205.902 538.37 202.939 541.169 201.701C543.94 200.4 547.427 200.897 549.721 202.923C551.343 204.292 552.3 206.33 552.5 208.428V290.224C552.136 296.394 549.397 302.408 544.841 306.612C540.464 310.736 534.486 313.09 528.477 313.082C476.29 313.09 424.107 313.082 371.92 313.086C363.86 313.254 355.896 309.034 351.492 302.28C349.126 298.74 347.8 294.56 347.5 290.324V159.744C347.836 154.243 350.03 148.85 353.774 144.786ZM363.52 160.918C363.512 203.639 363.512 246.365 363.52 289.087C363.42 293.355 367.267 297.175 371.531 297.066C416.295 297.07 461.059 297.074 505.822 297.062C504.045 292.318 504.505 287.193 504.453 282.236C504.449 241.789 504.461 201.345 504.445 160.902C504.537 156.641 500.709 152.826 496.445 152.934C454.805 152.926 413.164 152.926 371.523 152.934C367.255 152.822 363.416 156.649 363.52 160.918Z" fill="black"/>
<path d="M385.319 169.259C386.164 169.011 387.049 168.947 387.926 168.943C419.308 168.955 450.687 168.939 482.069 168.951C484.732 168.939 487.339 170.372 488.76 172.622C490.398 175.109 490.45 178.524 488.896 181.059C487.503 183.433 484.816 184.971 482.061 184.959C450.679 184.971 419.3 184.955 387.922 184.967C385.599 185.047 383.249 184.134 381.684 182.404C379.722 180.358 379.025 177.219 379.91 174.528C380.683 172.014 382.785 169.972 385.319 169.259Z" fill="black"/>
<path d="M385.322 201.29C386.171 201.038 387.064 200.978 387.949 200.974C419.315 200.986 450.686 200.97 482.053 200.982C484.823 200.962 487.534 202.512 488.923 204.91C490.417 207.38 490.397 210.668 488.883 213.122C487.478 215.484 484.795 217.006 482.045 216.99C450.678 217.002 419.311 216.986 387.945 216.998C385.622 217.082 383.264 216.173 381.691 214.443C379.653 212.317 378.984 209.018 380.013 206.263C380.854 203.881 382.892 201.975 385.322 201.29Z" fill="black"/>
<path d="M385.304 233.324C386.293 233.027 387.33 232.999 388.355 233.003C393.428 233.019 398.496 232.995 403.569 233.011C406.965 232.963 410.204 235.342 411.181 238.593C412.194 241.652 411.113 245.251 408.574 247.241C407.165 248.39 405.355 249.019 403.537 249.019C398.204 249.027 392.871 249.027 387.538 249.019C383.722 249.095 380.175 246.068 379.634 242.296C378.921 238.429 381.516 234.345 385.304 233.324Z" fill="black"/>
<path d="M446.189 233.307C447.574 233.083 448.98 233.003 450.385 233.007C455.594 233.011 460.803 233.003 466.012 233.007C471.926 232.995 477.812 235.269 482.16 239.281C486.813 243.481 489.699 249.563 490 255.825C490.324 261.847 488.234 267.945 484.326 272.533C479.946 277.762 473.251 280.953 466.429 281.045C460.951 281.065 455.47 281.049 449.993 281.049C443.518 281.065 437.108 278.299 432.652 273.606C428.412 269.206 425.949 263.136 425.977 257.018C425.953 250.736 428.56 244.494 433.02 240.073C436.556 236.506 441.24 234.128 446.189 233.307ZM447.771 249.338C444.139 250.327 441.556 254.127 442.037 257.875C442.365 261.67 445.757 264.898 449.572 265.014C455.054 265.066 460.543 265.03 466.024 265.034C468.791 265.05 471.486 263.504 472.883 261.122C474.385 258.668 474.385 255.4 472.891 252.946C471.49 250.548 468.779 248.994 466 249.026C460.927 249.01 455.854 249.034 450.777 249.018C449.769 249.014 448.743 249.046 447.771 249.338Z" fill="black"/>
<path d="M385.31 265.354C386.158 265.102 387.047 265.038 387.928 265.034C392.745 265.038 397.557 265.042 402.374 265.034C403.892 264.998 405.465 265.082 406.859 265.755C409.669 266.988 411.591 269.959 411.555 273.03C411.607 276.209 409.545 279.272 406.598 280.445C405.133 281.089 403.499 281.077 401.93 281.057C397.133 281.045 392.332 281.065 387.532 281.049C384.873 281.069 382.279 279.652 380.837 277.422C379.404 275.264 379.131 272.393 380.136 270.003C381.033 267.773 382.999 266.011 385.31 265.354Z" fill="black"/>
</g>
<defs>
<clipPath id="clip0_4423:12153">
<rect width="205" height="205" fill="white" transform="translate(347.5 122.5)"/>
</clipPath>
</defs>
</svg>
